<svg width="40" height="40" viewBox="0 0 40 40" fill="none" xmlns="http://www.w3.org/2000/svg">
<g filter="url(#filter0_d_467_2010)">
<rect x="4" y="4" width="32" height="32" rx="16" fill="white"/>
<path d="M29.3751 24.5H28.6251V21.5C28.6251 21.3011 28.5461 21.1103 28.4054 20.9697C28.2648 20.829 28.074 20.75 27.8751 20.75H27.1251C26.9262 20.75 26.7354 20.829 26.5948 20.9697C26.4541 21.1103 26.3751 21.3011 26.3751 21.5V24.5H26.0001V19.25C26.0001 19.0511 25.9211 18.8603 25.7804 18.7197C25.6398 18.579 25.449 18.5 25.2501 18.5H24.5001C24.3012 18.5 24.1104 18.579 23.9698 18.7197C23.8291 18.8603 23.7501 19.0511 23.7501 19.25V24.5H23.3751V20.375C23.3751 20.1761 23.2961 19.9853 23.1554 19.8447C23.0148 19.704 22.824 19.625 22.6251 19.625H21.8751C21.6762 19.625 21.4854 19.704 21.3448 19.8447C21.2041 19.9853 21.1251 20.1761 21.1251 20.375V24.5C21.0257 24.4999 20.9304 24.4604 20.8601 24.3901C20.7897 24.3198 20.7502 24.2244 20.7501 24.125V18.125C20.7501 18.0255 20.7106 17.9302 20.6403 17.8598C20.5699 17.7895 20.4746 17.75 20.3751 17.75C20.2757 17.75 20.1803 17.7895 20.1099 17.8598C20.0396 17.9302 20.0001 18.0255 20.0001 18.125V24.125C20.0004 24.4233 20.119 24.7093 20.3299 24.9202C20.5409 25.1311 20.8268 25.2497 21.1251 25.25H29.3751C29.4746 25.25 29.5699 25.2105 29.6403 25.1402C29.7106 25.0698 29.7501 24.9745 29.7501 24.875C29.7501 24.7755 29.7106 24.6802 29.6403 24.6098C29.5699 24.5395 29.4746 24.5 29.3751 24.5ZM21.8751 24.5L21.8747 20.375H22.6251V24.5H21.8751ZM24.5001 24.5L24.4997 19.25H25.2501V24.5H24.5001ZM27.1251 24.5L27.1247 21.5H27.8751V24.5H27.1251ZM25.2501 13.25C25.2501 13.1505 25.2896 13.0552 25.3599 12.9848C25.4303 12.9145 25.5257 12.875 25.6251 12.875H29.0001C29.0996 12.875 29.1949 12.9145 29.2653 12.9848C29.3356 13.0552 29.3751 13.1505 29.3751 13.25C29.3751 13.3495 29.3356 13.4448 29.2653 13.5152C29.1949 13.5855 29.0996 13.625 29.0001 13.625H25.6251C25.5257 13.625 25.4303 13.5855 25.3599 13.5152C25.2896 13.4448 25.2501 13.3495 25.2501 13.25ZM24.1251 13.25C24.1251 13.1758 24.1471 13.1033 24.1883 13.0417C24.2295 12.98 24.2881 12.9319 24.3566 12.9035C24.4251 12.8752 24.5005 12.8677 24.5733 12.8822C24.646 12.8967 24.7128 12.9324 24.7653 12.9848C24.8177 13.0373 24.8534 13.1041 24.8679 13.1768C24.8824 13.2496 24.8749 13.325 24.8466 13.3935C24.8182 13.462 24.7701 13.5206 24.7084 13.5618C24.6468 13.603 24.5743 13.625 24.5001 13.625C24.4007 13.625 24.3053 13.5855 24.2349 13.5152C24.1646 13.4448 24.1251 13.3495 24.1251 13.25ZM25.2501 14.75C25.2501 14.6505 25.2896 14.5552 25.3599 14.4848C25.4303 14.4145 25.5257 14.375 25.6251 14.375H29.0001C29.0996 14.375 29.1949 14.4145 29.2653 14.4848C29.3356 14.5552 29.3751 14.6505 29.3751 14.75C29.3751 14.8495 29.3356 14.9448 29.2653 15.0152C29.1949 15.0855 29.0996 15.125 29.0001 15.125H25.6251C25.5257 15.125 25.4303 15.0855 25.3599 15.0152C25.2896 14.9448 25.2501 14.8495 25.2501 14.75ZM25.2501 16.25C25.2501 16.1505 25.2896 16.0552 25.3599 15.9848C25.4303 15.9145 25.5257 15.875 25.6251 15.875H29.0001C29.0996 15.875 29.1949 15.9145 29.2653 15.9848C29.3356 16.0552 29.3751 16.1505 29.3751 16.25C29.3751 16.3495 29.3356 16.4448 29.2653 16.5152C29.1949 16.5855 29.0996 16.625 29.0001 16.625H25.6251C25.5257 16.625 25.4303 16.5855 25.3599 16.5152C25.2896 16.4448 25.2501 16.3495 25.2501 16.25ZM24.1251 14.75C24.1251 14.6758 24.1471 14.6033 24.1883 14.5417C24.2295 14.48 24.2881 14.4319 24.3566 14.4035C24.4251 14.3752 24.5005 14.3677 24.5733 14.3822C24.646 14.3967 24.7128 14.4324 24.7653 14.4848C24.8177 14.5373 24.8534 14.6041 24.8679 14.6768C24.8824 14.7496 24.8749 14.825 24.8466 14.8935C24.8182 14.962 24.7701 15.0206 24.7084 15.0618C24.6468 15.103 24.5743 15.125 24.5001 15.125C24.4007 15.125 24.3053 15.0855 24.2349 15.0152C24.1646 14.9448 24.1251 14.8495 24.1251 14.75ZM24.1251 16.25C24.1251 16.1758 24.1471 16.1033 24.1883 16.0417C24.2295 15.98 24.2881 15.9319 24.3566 15.9035C24.4251 15.8752 24.5005 15.8677 24.5733 15.8822C24.646 15.8967 24.7128 15.9324 24.7653 15.9848C24.8177 16.0373 24.8534 16.1041 24.8679 16.1768C24.8824 16.2496 24.8749 16.325 24.8466 16.3935C24.8182 16.462 24.7701 16.5206 24.7084 16.5618C24.6468 16.603 24.5743 16.625 24.5001 16.625C24.4007 16.625 24.3053 16.5855 24.2349 16.5152C24.1646 16.4448 24.1251 16.3495 24.1251 16.25ZM30.1251 10.625H11.3751C11.0768 10.6253 10.7909 10.7439 10.5799 10.9548C10.369 11.1657 10.2504 11.4517 10.2501 11.75V16.6437C9.93776 16.6871 9.65163 16.8419 9.44453 17.0797C9.23743 17.3175 9.12335 17.6222 9.12335 17.9375C9.12335 18.2528 9.23743 18.5575 9.44453 18.7953C9.65163 19.0331 9.93776 19.1879 10.2501 19.2313V20.99C9.7404 21.4794 9.34327 22.0738 9.08627 22.732C8.82928 23.3902 8.71856 24.0965 8.76182 24.8018C8.80508 25.507 9.00127 26.1945 9.33678 26.8164C9.67229 27.4382 10.1391 27.9797 10.7048 28.4031C11.2705 28.8265 11.9215 29.1218 12.6127 29.2684C13.304 29.4151 14.0188 29.4095 14.7077 29.2523C15.3966 29.095 16.043 28.7897 16.6021 28.3576C17.1612 27.9255 17.6196 27.377 17.9455 26.75H30.1251C30.4234 26.7497 30.7094 26.6311 30.9203 26.4202C31.1312 26.2093 31.2498 25.9233 31.2501 25.625V11.75C31.2498 11.4517 31.1312 11.1657 30.9203 10.9548C30.7094 10.7439 30.4234 10.6253 30.1251 10.625ZM9.87511 17.9375C9.87511 17.8262 9.9081 17.7175 9.96991 17.625C10.0317 17.5325 10.1196 17.4604 10.2224 17.4178C10.3251 17.3752 10.4382 17.3641 10.5473 17.3858C10.6565 17.4075 10.7567 17.4611 10.8354 17.5398C10.914 17.6184 10.9676 17.7186 10.9893 17.8278C11.011 17.9369 10.9999 18.05 10.9573 18.1528C10.9147 18.2555 10.8426 18.3434 10.7501 18.4052C10.6576 18.467 10.5489 18.5 10.4376 18.5C10.2885 18.4998 10.1455 18.4405 10.0401 18.335C9.93463 18.2296 9.87531 18.0866 9.87511 17.9375ZM13.2501 20.3937V24.2758L9.83086 26.117C9.57558 25.5191 9.46536 24.8693 9.50922 24.2206C9.55307 23.5719 9.74975 22.9429 10.0832 22.3847C10.4166 21.8266 10.8774 21.3553 11.4278 21.0093C11.9782 20.6632 12.6026 20.4523 13.2501 20.3937ZM14.0001 20.3937C14.9597 20.4825 15.8581 20.9041 16.5395 21.5856C17.221 22.267 17.6426 23.1654 17.7314 24.125H14.0001V20.3937ZM13.6251 28.625C12.9442 28.6246 12.274 28.4555 11.6743 28.1329C11.0746 27.8103 10.5642 27.3442 10.1886 26.7762L13.72 24.875H17.731C17.6366 25.8991 17.1633 26.8512 16.4039 27.5448C15.6445 28.2383 14.6536 28.6236 13.6251 28.625ZM30.5001 25.625C30.5 25.7244 30.4605 25.8198 30.3902 25.8901C30.3199 25.9604 30.2245 25.9999 30.1251 26H18.2616C18.5728 25.0447 18.5808 24.0166 18.2845 23.0566C17.9881 22.0966 17.402 21.2518 16.6065 20.6382C15.811 20.0245 14.8451 19.6721 13.8413 19.6292C12.8375 19.5863 11.8451 19.8551 11.0001 20.3986V19.1184C11.2239 19.0125 11.4131 18.8454 11.5458 18.6364C11.6786 18.4274 11.7494 18.1851 11.7501 17.9375C11.749 17.7409 11.7032 17.5472 11.6162 17.3709L13.5137 15.6841C13.6894 15.7898 13.8874 15.8529 14.0919 15.8684C14.2964 15.8839 14.5016 15.8514 14.6912 15.7734L16.3439 17.0784C16.2641 17.2785 16.2348 17.4953 16.2587 17.7094C16.2825 17.9235 16.3588 18.1285 16.4807 18.3062C16.6026 18.4839 16.7664 18.6288 16.9576 18.7281C17.1488 18.8275 17.3615 18.8782 17.577 18.8758C17.7924 18.8734 18.004 18.818 18.1929 18.7144C18.3819 18.6108 18.5424 18.4623 18.6603 18.2819C18.7782 18.1016 18.8499 17.895 18.8689 17.6803C18.888 17.4657 18.854 17.2497 18.7697 17.0514L20.9372 15.2607C21.1953 15.4399 21.5093 15.5202 21.8217 15.487C22.1341 15.4537 22.4241 15.3092 22.6388 15.0797C22.8534 14.8503 22.9783 14.5513 22.9907 14.2374C23.003 13.9234 22.902 13.6155 22.706 13.3699C22.5101 13.1244 22.2323 12.9575 21.9235 12.8998C21.6147 12.8421 21.2954 12.8975 21.024 13.0558C20.7526 13.2141 20.5473 13.4648 20.4455 13.762C20.3437 14.0593 20.3523 14.3832 20.4696 14.6746L18.2927 16.4731C18.0726 16.3264 17.8133 16.2496 17.5488 16.2528C17.2843 16.2559 17.0269 16.3389 16.8104 16.4908L15.2834 15.2851C15.4107 15.0939 15.4856 14.8725 15.5005 14.6432C15.5155 14.4139 15.4699 14.1847 15.3685 13.9785C15.267 13.7724 15.1132 13.5964 14.9224 13.4684C14.7315 13.3403 14.5105 13.2647 14.2812 13.2489C14.052 13.2331 13.8226 13.2778 13.6161 13.3786C13.4095 13.4793 13.2331 13.6325 13.1043 13.8228C12.9756 14.0131 12.8991 14.2339 12.8825 14.4631C12.8659 14.6923 12.9098 14.9218 13.0097 15.1287L11.1107 16.8166C11.0748 16.7949 11.0379 16.7748 11.0001 16.7566V11.75C11.0002 11.6506 11.0397 11.5552 11.1101 11.4849C11.1804 11.4146 11.2757 11.3751 11.3751 11.375H30.1251C30.2245 11.3751 30.3199 11.4146 30.3902 11.4849C30.4605 11.5552 30.5 11.6506 30.5001 11.75V25.625ZM14.5851 14.96C14.5065 15.0387 14.4062 15.0924 14.2971 15.1141C14.188 15.1359 14.0748 15.1248 13.972 15.0822C13.8692 15.0397 13.7813 14.9676 13.7195 14.8751C13.6576 14.7826 13.6246 14.6738 13.6246 14.5625C13.6246 14.4512 13.6576 14.3424 13.7195 14.2499C13.7813 14.1574 13.8692 14.0853 13.972 14.0428C14.0748 14.0002 14.188 13.9891 14.2971 14.0109C14.4062 14.0326 14.5065 14.0863 14.5851 14.165C14.6903 14.2706 14.7493 14.4135 14.7493 14.5625C14.7493 14.7115 14.6903 14.8544 14.5851 14.96ZM17.9601 17.96C17.8815 18.0387 17.7812 18.0924 17.6721 18.1141C17.563 18.1359 17.4498 18.1248 17.347 18.0822C17.2442 18.0397 17.1563 17.9676 17.0945 17.8751C17.0326 17.7826 16.9996 17.6738 16.9996 17.5625C16.9996 17.4512 17.0326 17.3424 17.0945 17.2499C17.1563 17.1574 17.2442 17.0853 17.347 17.0428C17.4498 17.0002 17.563 16.9891 17.6721 17.0109C17.7812 17.0326 17.8815 17.0863 17.9601 17.165C18.0653 17.2706 18.1243 17.4135 18.1243 17.5625C18.1243 17.7115 18.0653 17.8544 17.9601 17.96ZM21.2901 13.79C21.3687 13.7113 21.469 13.6576 21.5781 13.6359C21.6872 13.6141 21.8004 13.6252 21.9032 13.6678C22.006 13.7103 22.0939 13.7824 22.1558 13.8749C22.2176 13.9674 22.2506 14.0762 22.2506 14.1875C22.2506 14.2988 22.2176 14.4076 22.1558 14.5001C22.0939 14.5926 22.006 14.6647 21.9032 14.7072C21.8004 14.7498 21.6872 14.7609 21.5781 14.7391C21.469 14.7174 21.3687 14.6637 21.2901 14.585C21.185 14.4794 21.1259 14.3365 21.1259 14.1875C21.1259 14.0385 21.185 13.8956 21.2901 13.79Z" fill="#FBBC05"/>
</g>
<defs>
<filter id="filter0_d_467_2010" x="0" y="0" width="40" height="40" filterUnits="userSpaceOnUse" color-interpolation-filters="sRGB">
<feFlood flood-opacity="0" result="BackgroundImageFix"/>
<feColorMatrix in="SourceAlpha" type="matrix" values="0 0 0 0 0 0 0 0 0 0 0 0 0 0 0 0 0 0 127 0" result="hardAlpha"/>
<feOffset/>
<feGaussianBlur stdDeviation="2"/>
<feComposite in2="hardAlpha" operator="out"/>
<feColorMatrix type="matrix" values="0 0 0 0 0 0 0 0 0 0 0 0 0 0 0 0 0 0 0.08 0"/>
<feBlend mode="normal" in2="BackgroundImageFix" result="effect1_dropShadow_467_2010"/>
<feBlend mode="normal" in="SourceGraphic" in2="effect1_dropShadow_467_2010" result="shape"/>
</filter>
</defs>
</svg>
