<svg width="16" height="19" viewBox="0 0 16 19" fill="none" xmlns="http://www.w3.org/2000/svg">
<path d="M15.6647 14.6692C15.3774 15.3269 15.0374 15.9322 14.6434 16.4888C14.1064 17.2475 13.6667 17.7727 13.3279 18.0643C12.8026 18.5431 12.2398 18.7882 11.6371 18.8022C11.2045 18.8022 10.6827 18.6802 10.0753 18.4327C9.46598 18.1863 8.906 18.0643 8.39396 18.0643C7.85696 18.0643 7.28102 18.1863 6.66499 18.4327C6.04801 18.6802 5.55099 18.8091 5.17098 18.8219C4.59305 18.8463 4.017 18.5942 3.442 18.0643C3.07501 17.7471 2.61598 17.2034 2.06607 16.433C1.47607 15.6104 0.991001 14.6565 0.610992 13.5689C0.204016 12.3942 0 11.2567 0 10.1555C0 8.89397 0.27507 7.80595 0.82603 6.8942C1.25904 6.16185 1.83509 5.58415 2.55606 5.16005C3.27703 4.73595 4.05605 4.51984 4.89497 4.50601C5.35401 4.50601 5.95597 4.64672 6.70403 4.92325C7.44998 5.20072 7.92895 5.34142 8.13894 5.34142C8.29594 5.34142 8.82802 5.1769 9.73003 4.84889C10.583 4.5447 11.3029 4.41875 11.8927 4.46836C13.4908 4.59617 14.6915 5.22047 15.49 6.3452C14.0607 7.20339 13.3537 8.40538 13.3677 9.94735C13.3806 11.1484 13.8203 12.1479 14.6845 12.9415C15.0761 13.3098 15.5134 13.5945 16 13.7966C15.8945 14.0999 15.7831 14.3904 15.6647 14.6692ZM11.9994 0.376578C11.9994 1.31797 11.6524 2.19694 10.9606 3.01051C10.1258 3.97769 9.11599 4.53657 8.02099 4.44838C8.00704 4.33544 7.99894 4.21658 7.99894 4.09167C7.99894 3.18794 8.39595 2.22076 9.10098 1.42997C9.45297 1.02957 9.90063 0.696649 10.4435 0.431071C10.9852 0.169455 11.4976 0.0247757 11.9795 0C11.9936 0.125849 11.9994 0.251707 11.9994 0.376566V0.376578Z" fill="#121212"/>
</svg>
