<svg width="32" height="32" viewBox="0 0 32 32" fill="none" xmlns="http://www.w3.org/2000/svg">
<g filter="url(#filter0_d_337_2425)">
<rect x="4" y="4" width="24" height="24" rx="12" fill="white"/>
<rect x="4.25" y="4.25" width="23.5" height="23.5" rx="11.75" stroke="#F5F5F5" stroke-width="0.5"/>
<path d="M21.5249 16.25V15.75C21.6629 15.75 21.7749 15.6381 21.7749 15.5V14C21.7749 13.8619 21.6629 13.75 21.5249 13.75H20.1749L20.1265 13.5622C20.016 13.1327 19.8442 12.7213 19.6164 12.3407L19.5164 12.1734L20.4749 11.2133C20.5714 11.1166 20.5714 10.9599 20.4749 10.8633L19.4132 9.8C19.366 9.75501 19.3033 9.7299 19.2381 9.7299C19.1729 9.7299 19.1103 9.75501 19.0631 9.8L18.1028 10.7603L17.9357 10.6603C17.5545 10.4324 17.1426 10.2606 16.7126 10.15L16.5249 10.1012V8.75C16.5249 8.61193 16.413 8.5 16.2749 8.5H14.7749C14.6368 8.5 14.5249 8.61193 14.5249 8.75V10.1L14.3371 10.1485C13.9076 10.259 13.4961 10.4307 13.1154 10.6582L12.9482 10.7583L11.9882 9.8C11.9409 9.75466 11.878 9.72934 11.8125 9.72934C11.7471 9.72934 11.6841 9.75466 11.6369 9.8L10.5749 10.8617C10.5518 10.8848 10.5334 10.9122 10.5209 10.9423C10.5084 10.9725 10.5019 11.0049 10.5019 11.0375C10.5019 11.0702 10.5084 11.1025 10.5209 11.1327C10.5334 11.1628 10.5518 11.1902 10.5749 11.2133L11.5352 12.1734L11.4352 12.3407C11.2074 12.7213 11.0357 13.1327 10.9252 13.5622L10.8762 13.75H9.5249C9.38683 13.75 9.2749 13.8619 9.2749 14V15.5C9.2749 15.6381 9.38683 15.75 9.5249 15.75V16.25C9.11075 16.25 8.7749 15.9142 8.7749 15.5V14C8.7749 13.5859 9.11075 13.25 9.5249 13.25H10.4922C10.5953 12.9043 10.7347 12.5706 10.9082 12.2543L10.2207 11.5668C10.0801 11.4265 10.0011 11.2361 10.0011 11.0375C10.0011 10.839 10.0801 10.6485 10.2207 10.5083L11.2832 9.4458C11.5792 9.1625 12.0459 9.1625 12.3419 9.4458L13.0292 10.133C13.3455 9.95972 13.6793 9.82045 14.0249 9.7175V8.75C14.0249 8.33585 14.3608 8 14.7749 8H16.2749C16.6891 8 17.0249 8.33585 17.0249 8.75V9.7175C17.3706 9.82055 17.7043 9.95993 18.0206 10.1333L18.7081 9.4458C19.0042 9.1625 19.4708 9.1625 19.7669 9.4458L20.8292 10.508C20.8988 10.5775 20.954 10.6599 20.9916 10.7507C21.0293 10.8416 21.0486 10.9389 21.0486 11.0372C21.0487 11.1355 21.0293 11.2329 20.9916 11.3237C20.954 11.4145 20.8988 11.497 20.8292 11.5665L20.1417 12.254C20.315 12.5704 20.4544 12.9043 20.5576 13.25H21.5249C21.9391 13.25 22.2749 13.5859 22.2749 14V15.5C22.2749 15.9142 21.9391 16.25 21.5249 16.25Z" fill="#FBBC05"/>
<path d="M19.0249 14.75H18.5249C18.5249 13.0932 17.1817 11.75 15.5249 11.75C13.8681 11.75 12.5249 13.0932 12.5249 14.75H12.0249C12.0249 12.817 13.5919 11.25 15.5249 11.25C17.4578 11.25 19.0249 12.817 19.0249 14.75Z" fill="#FBBC05"/>
<path d="M15.5249 16.75C14.6965 16.75 14.0249 16.0783 14.0249 15.25C14.0249 14.4216 14.6965 13.75 15.5249 13.75C16.3534 13.75 17.0249 14.4216 17.0249 15.25C17.024 16.0781 16.353 16.7491 15.5249 16.75ZM15.5249 14.25C14.9727 14.25 14.5249 14.6978 14.5249 15.25C14.5249 15.8023 14.9727 16.25 15.5249 16.25C16.0772 16.25 16.5249 15.8023 16.5249 15.25C16.5249 14.6978 16.0772 14.25 15.5249 14.25ZM19.7749 17.75C18.9465 17.75 18.2749 17.0783 18.2749 16.25C18.2749 15.4216 18.9465 14.75 19.7749 14.75C20.6033 14.75 21.2749 15.4216 21.2749 16.25C21.274 17.0781 20.603 17.7491 19.7749 17.75ZM19.7749 15.25C19.2227 15.25 18.7749 15.6977 18.7749 16.25C18.7749 16.8023 19.2227 17.25 19.7749 17.25C20.3272 17.25 20.7749 16.8023 20.7749 16.25C20.7749 15.6977 20.3272 15.25 19.7749 15.25ZM11.2749 17.75C10.4465 17.75 9.7749 17.0783 9.7749 16.25C9.7749 15.4216 10.4465 14.75 11.2749 14.75C12.1034 14.75 12.7749 15.4216 12.7749 16.25C12.774 17.0781 12.103 17.7491 11.2749 17.75ZM11.2749 15.25C10.7227 15.25 10.2749 15.6977 10.2749 16.25C10.2749 16.8023 10.7227 17.25 11.2749 17.25C11.8272 17.25 12.2749 16.8023 12.2749 16.25C12.2749 15.6977 11.8272 15.25 11.2749 15.25Z" fill="#FBBC05"/>
<path d="M22.0413 18.3914C21.6687 18.1353 21.227 17.9988 20.7749 18H18.7749C18.6533 18.0011 18.5319 18.0121 18.4121 18.0329C18.2521 17.7827 18.044 17.5668 17.7999 17.3977C17.7633 17.37 17.7248 17.345 17.6847 17.3228C17.3349 17.111 16.9337 16.9994 16.5249 17H14.5249C14.1488 16.9987 13.7785 17.0927 13.4486 17.2734C13.1186 17.454 12.8399 17.7153 12.6384 18.0329C12.5183 18.0121 12.3968 18.0011 12.2749 18H10.2749C9.82309 17.9988 9.38161 18.1351 9.00918 18.3909C8.70607 18.5972 8.45795 18.8744 8.28641 19.1984C8.11486 19.5224 8.02509 19.8834 8.0249 20.25V21.25C8.02578 21.9326 8.42295 22.5526 9.04298 22.8385C9.27184 22.9463 9.52193 23.0015 9.7749 23H12.2749V22.5H10.0249V19.75H9.5249V22.4749C9.4308 22.456 9.33936 22.4257 9.25265 22.3845C9.03578 22.2845 8.85202 22.1246 8.72308 21.9235C8.59413 21.7225 8.52537 21.4888 8.5249 21.25V20.25C8.5252 19.9647 8.59519 19.6838 8.72877 19.4317C8.86236 19.1796 9.0555 18.9639 9.2914 18.8034C9.58084 18.6048 9.92387 18.499 10.2749 18.5H12.2749C12.319 18.5 12.3614 18.5047 12.4044 18.5076C12.3198 18.7461 12.276 18.997 12.2749 19.25V21.75C12.2758 22.4401 12.835 22.9991 13.5249 23H14.2749V19H13.7749V22.5H13.5249C13.1108 22.5 12.7749 22.1642 12.7749 21.75V19.25C12.7749 18.2834 13.5585 17.5 14.5249 17.5H16.5249C16.8465 17.5002 17.1619 17.5893 17.4362 17.7573C17.4615 17.7711 17.4859 17.7867 17.5091 17.8039C17.7433 17.9643 17.9356 18.1787 18.0696 18.4289C18.2044 18.6816 18.2749 18.9636 18.2749 19.25V21.75C18.2749 22.1642 17.9391 22.5 17.5249 22.5H17.2749V19H16.7749V23H17.5249C18.215 22.9991 18.774 22.4401 18.7749 21.75V19.25C18.7737 18.9971 18.73 18.7461 18.6456 18.5076C18.6887 18.5047 18.7312 18.5 18.7749 18.5H20.7749C21.1262 18.4991 21.4695 18.6051 21.7591 18.8039C21.9948 18.9644 22.1877 19.1801 22.3212 19.4321C22.4546 19.6841 22.5246 19.9648 22.5249 20.25V21.25C22.5245 21.4896 22.4553 21.7241 22.3255 21.9255C22.1958 22.127 22.011 22.2869 21.793 22.3864C21.7076 22.4268 21.6176 22.4566 21.5249 22.4749V19.75H21.0249V22.5H18.7749V23H21.2749C21.5263 23.0016 21.775 22.9471 22.0027 22.8404C22.6247 22.5554 23.0239 21.9343 23.0249 21.25V20.25C23.0247 19.8835 22.935 19.5227 22.7636 19.1987C22.5922 18.8748 22.3442 18.5977 22.0413 18.3914Z" fill="#FBBC05"/>
<path d="M14.5249 22.5H16.5249V23H14.5249V22.5Z" fill="#FBBC05"/>
</g>
<defs>
<filter id="filter0_d_337_2425" x="0" y="0" width="32" height="32" filterUnits="userSpaceOnUse" color-interpolation-filters="sRGB">
<feFlood flood-opacity="0" result="BackgroundImageFix"/>
<feColorMatrix in="SourceAlpha" type="matrix" values="0 0 0 0 0 0 0 0 0 0 0 0 0 0 0 0 0 0 127 0" result="hardAlpha"/>
<feOffset/>
<feGaussianBlur stdDeviation="2"/>
<feComposite in2="hardAlpha" operator="out"/>
<feColorMatrix type="matrix" values="0 0 0 0 0 0 0 0 0 0 0 0 0 0 0 0 0 0 0.04 0"/>
<feBlend mode="normal" in2="BackgroundImageFix" result="effect1_dropShadow_337_2425"/>
<feBlend mode="normal" in="SourceGraphic" in2="effect1_dropShadow_337_2425" result="shape"/>
</filter>
</defs>
</svg>
