<svg width="40" height="40" viewBox="0 0 40 40" fill="none" xmlns="http://www.w3.org/2000/svg">
<g filter="url(#filter0_d_467_2024)">
<rect x="4" y="4" width="32" height="32" rx="16" fill="white"/>
<path d="M20.1291 30.9219H19.8709C19.6301 30.922 19.3912 30.8788 19.1657 30.7943C16.6769 29.8631 14.677 28.3541 13.2217 26.309C12.0788 24.7031 11.2862 22.7832 10.8657 20.603C10.1723 17.0067 10.7338 13.8894 10.7581 13.7585C10.8822 13.088 11.3319 12.5309 11.961 12.2681L19.2242 9.23366C19.4713 9.13045 19.7323 9.07812 20 9.07812C20.2677 9.07812 20.5287 9.13045 20.7757 9.23364L28.0389 12.268C28.668 12.5309 29.1177 13.088 29.2419 13.7584C29.2661 13.8894 29.8276 17.0071 29.1342 20.6029C28.7138 22.7832 27.9211 24.703 26.7782 26.309C25.3229 28.3541 23.323 29.8631 20.8342 30.7943C20.6087 30.8788 20.3699 30.922 20.1291 30.9219ZM20 9.82812C19.8329 9.82795 19.6675 9.86112 19.5134 9.92568L12.2502 12.9601C11.8555 13.1249 11.5734 13.4745 11.4955 13.895C11.4723 14.0202 10.9352 17.0023 11.6022 20.4609C12.0021 22.535 12.7526 24.3563 13.8327 25.8742C15.1997 27.7951 17.0824 29.2141 19.4285 30.0918C19.57 30.1448 19.7198 30.172 19.8708 30.1719H20.1291C20.2806 30.1719 20.4295 30.1449 20.5714 30.0918C22.9175 29.2141 24.8002 27.7951 26.1672 25.8742C27.2474 24.3563 27.9978 22.535 28.3978 20.4609C29.0646 17.0027 28.5276 14.0202 28.5044 13.895C28.4265 13.4745 28.1444 13.1249 27.7498 12.9601L20.4866 9.92567C20.3325 9.86112 20.1671 9.82795 20 9.82812Z" fill="#FBBC05"/>
<path d="M20.1292 29.2844H19.871C19.8261 29.2844 19.7816 29.2763 19.7396 29.2606C17.5624 28.446 15.8183 27.1335 14.5559 25.3595C13.5499 23.9459 12.8493 22.2412 12.4736 20.2928C12.1415 18.5702 12.1299 16.9703 12.1787 15.9315C12.2318 14.8027 12.3626 14.0864 12.3682 14.0564C12.3795 13.9952 12.406 13.9377 12.4451 13.8892C12.4842 13.8407 12.5349 13.8027 12.5924 13.7787L19.8555 10.7443C19.9013 10.7252 19.9505 10.7153 20.0001 10.7153C20.0497 10.7153 20.0989 10.7252 20.1447 10.7443L27.4078 13.7787C27.4653 13.8027 27.5159 13.8407 27.5551 13.8892C27.5942 13.9377 27.6207 13.9952 27.632 14.0564C27.6376 14.0864 27.7684 14.8027 27.8215 15.9315C27.8703 16.9703 27.8588 18.5702 27.5266 20.2928C27.1509 22.2412 26.4503 23.9459 25.4443 25.3595C24.1819 27.1335 22.4378 28.446 20.2606 29.2606C20.2186 29.2763 20.1741 29.2844 20.1292 29.2844ZM19.9394 28.5344H20.0609C23.722 27.1423 25.9858 24.3221 26.7902 20.1508C27.306 17.476 27.0266 15.0783 26.9259 14.3902L20.0001 11.4967L13.0742 14.3902C13.0328 14.6719 12.9612 15.2394 12.9269 15.9894C12.8812 16.9878 12.8939 18.5241 13.2143 20.1727C14.0227 24.3321 16.2849 27.1449 19.9394 28.5344Z" fill="#FBBC05"/>
<path d="M21.8074 24.6423H18.1926C17.2219 24.6423 16.4321 23.8525 16.4321 22.8816V19.9442C16.4321 18.9734 17.2219 18.1836 18.1926 18.1836H21.8074C22.7781 18.1836 23.5679 18.9734 23.5679 19.9442V22.8816C23.5679 23.8525 22.7781 24.6423 21.8074 24.6423ZM18.1926 18.9336C17.6354 18.9336 17.1821 19.387 17.1821 19.9442V22.8816C17.1821 23.4389 17.6354 23.8923 18.1926 23.8923H21.8074C22.3646 23.8923 22.8179 23.4389 22.8179 22.8816V19.9442C22.8179 19.387 22.3646 18.9336 21.8074 18.9336H18.1926ZM20 21.8611C19.4271 21.8611 18.961 21.395 18.961 20.8221C18.961 20.2491 19.4271 19.783 20 19.783C20.5729 19.783 21.039 20.2491 21.039 20.8221C21.039 21.395 20.5729 21.8611 20 21.8611ZM20 20.533C19.8407 20.533 19.711 20.6626 19.711 20.8221C19.711 20.9814 19.8407 21.1111 20 21.1111C20.1594 21.1111 20.289 20.9814 20.289 20.8221C20.289 20.6626 20.1594 20.533 20 20.533Z" fill="#FBBC05"/>
<path d="M22.3353 18.9336C22.1282 18.9336 21.9603 18.7657 21.9603 18.5586V17.41C21.9603 16.3291 21.0809 15.4497 20 15.4497C18.9192 15.4497 18.0398 16.3291 18.0398 17.41V18.5586C18.0398 18.7657 17.8719 18.9336 17.6648 18.9336C17.4577 18.9336 17.2898 18.7657 17.2898 18.5586V17.41C17.2898 16.686 17.5717 16.0054 18.0836 15.4935C18.5955 14.9816 19.2761 14.6997 20 14.6997C20.724 14.6997 21.4046 14.9816 21.9165 15.4935C22.4284 16.0054 22.7103 16.686 22.7103 17.41V18.5586C22.7103 18.7657 22.5424 18.9336 22.3353 18.9336ZM20 22.9802C19.7929 22.9802 19.625 22.8123 19.625 22.6052V21.486C19.625 21.2789 19.7929 21.111 20 21.111C20.2072 21.111 20.375 21.2789 20.375 21.486V22.6052C20.375 22.8123 20.2072 22.9802 20 22.9802Z" fill="#FBBC05"/>
</g>
<defs>
<filter id="filter0_d_467_2024" x="0" y="0" width="40" height="40" filterUnits="userSpaceOnUse" color-interpolation-filters="sRGB">
<feFlood flood-opacity="0" result="BackgroundImageFix"/>
<feColorMatrix in="SourceAlpha" type="matrix" values="0 0 0 0 0 0 0 0 0 0 0 0 0 0 0 0 0 0 127 0" result="hardAlpha"/>
<feOffset/>
<feGaussianBlur stdDeviation="2"/>
<feComposite in2="hardAlpha" operator="out"/>
<feColorMatrix type="matrix" values="0 0 0 0 0 0 0 0 0 0 0 0 0 0 0 0 0 0 0.08 0"/>
<feBlend mode="normal" in2="BackgroundImageFix" result="effect1_dropShadow_467_2024"/>
<feBlend mode="normal" in="SourceGraphic" in2="effect1_dropShadow_467_2024" result="shape"/>
</filter>
</defs>
</svg>
